<svg xmlns="http://www.w3.org/2000/svg"><symbol shape-rendering="geometricPrecision" text-rendering="geometricPrecision" image-rendering="optimizeQuality" fill-rule="evenodd" clip-rule="evenodd" id="icon-inst" viewBox="0 0 3540 3540"><g fill="var(--icon-color)" fill-rule="nonzero"><path d="M1770 0c-480 0-540 0-730 10S720 50 610 90c-120 50-210 110-310 210S140 490 90 610c-40 110-70 240-80 430S0 1290 0 1770s0 540 10 730 40 320 80 430c50 120 110 220 210 320s190 160 310 200c110 50 240 80 430 80 190 10 250 10 730 10s540 0 730-10c190 0 320-30 430-80 120-40 220-100 320-200s160-200 200-320c50-110 80-240 80-430 10-190 10-250 10-730s0-540-10-730c0-190-30-320-80-430-40-120-100-210-200-310s-200-160-320-210c-110-40-240-70-430-80S2250 0 1770 0zm0 320c480 0 530 0 720 10 170 10 270 40 330 60 80 30 140 70 200 130 60 70 100 120 130 210 30 60 60 150 70 330 0 180 10 240 10 710 0 480-10 530-10 720-10 170-40 270-70 330-30 80-70 140-130 200s-120 100-200 130c-60 30-160 60-330 70-190 0-240 10-720 10-470 0-530-10-710-10-180-10-270-40-330-70-90-30-140-70-210-130-60-60-100-120-130-200-20-60-50-160-60-330-10-190-10-240-10-720 0-470 0-530 10-710s40-270 60-330c30-90 70-140 130-210 70-60 120-100 210-130 60-20 150-50 330-60s240-10 710-10z"/><path d="M1770 2360c-320 0-590-260-590-590 0-320 270-590 590-590 330 0 590 270 590 590 0 330-260 590-590 590zm0-1500c-500 0-910 410-910 910 0 510 410 910 910 910 510 0 910-400 910-910 0-500-400-910-910-910zm1160-30c0 110-90 210-210 210s-210-100-210-210c0-120 90-220 210-220s210 100 210 220z"/></g></symbol><symbol shape-rendering="geometricPrecision" text-rendering="geometricPrecision" image-rendering="optimizeQuality" fill-rule="evenodd" clip-rule="evenodd" id="icon-linked" viewBox="0 0 2750 2750"><path d="M330 0C150 0 0 150 0 330s150 330 330 330 330-150 330-330S510 0 330 0zm290 910H50v1840h570zm2130 1840V1740c0-490-110-870-680-870-280 0-470 150-540 290h-10V910H970v1840h570v-910c0-240 50-470 340-470 300 0 300 270 300 480v900h570z" fill="var(--icon-color)" fill-rule="nonzero"/></symbol></svg>