<svg width="16" height="20" viewBox="0 0 16 20" fill="none" xmlns="http://www.w3.org/2000/svg">
<path d="M15.4545 14.006C14.8472 15.8197 13.029 19.0311 11.1559 19.0661C9.91332 19.0907 9.51382 18.308 8.09354 18.308C6.67405 18.308 6.22973 19.0422 5.05518 19.0899C3.06773 19.1687 0 14.4547 0 10.3436C0 6.56749 2.55618 4.69572 4.78936 4.66151C5.98709 4.63924 7.11836 5.49279 7.84859 5.49279C8.58191 5.49279 9.95582 4.46662 11.4 4.61697C12.0043 4.64322 13.702 4.86754 14.7915 6.50782C11.9008 8.45039 12.3513 12.5129 15.4545 14.006ZM11.4194 0C9.23564 0.0906848 7.45373 2.44928 7.70255 4.3998C9.72091 4.56128 11.6574 2.23212 11.4194 0Z" fill="var(--rooms-cards-grey, #808080)"/>
</svg>
