<svg width="17" height="20" viewBox="0 0 17 20" fill="none" xmlns="http://www.w3.org/2000/svg">
<path d="M3.90945 7.27282L3.91026 14.7851C3.91026 15.47 4.47972 16.0228 5.18417 16.0228H5.54581V18.8403C5.54581 19.4799 6.12426 20.0001 6.78126 20.0001C7.44072 20.0001 8.00036 19.4799 8.00036 18.8395V16.0228H9.63672V18.8403C9.63672 19.4799 10.2152 20.0001 10.873 20.0001C11.5324 20.0001 12.0913 19.4799 12.0913 18.8395V16.0228L12.4545 16.022C13.1565 16.022 13.7276 15.4684 13.7276 14.7835V7.27282H3.90945ZM17.0004 8.44293C17.0004 7.80259 16.4317 7.27282 15.7731 7.27282C15.1144 7.27202 14.5458 7.80338 14.5458 8.44373V13.3008C14.5458 13.9419 15.1136 14.4319 15.7731 14.4319C16.4317 14.4319 17.0004 13.9427 17.0004 13.3008V8.44293ZM3.09126 8.44293C3.09126 7.80259 2.52263 7.27282 1.86399 7.27282C1.20536 7.27202 0.636719 7.80338 0.636719 8.44373V13.3008C0.636719 13.9419 1.20454 14.4319 1.86399 14.4319C2.52263 14.4319 3.09126 13.9427 3.09126 13.3008V8.44293ZM11.233 2.62657L12.0021 1.14782C12.0577 1.04282 11.9865 0.90918 11.8687 0.90918C11.8147 0.90918 11.7624 0.939407 11.7345 0.992702L10.9581 2.48657C9.70545 1.90032 8.05845 1.84066 6.67981 2.48657L5.90254 0.992702C5.87554 0.939407 5.82317 0.90918 5.76836 0.90918C5.65054 0.90918 5.57936 1.04282 5.63499 1.14782L6.40408 2.62657C4.89454 3.44907 3.90945 4.68202 3.90945 6.47657H13.7276C13.7276 4.68202 12.7425 3.44907 11.233 2.62657ZM6.7739 4.88645C6.54808 4.88645 6.36399 4.70827 6.36399 4.48873C6.36399 4.27077 6.54808 4.091 6.7739 4.091C6.99972 4.091 7.18217 4.27077 7.18217 4.48873C7.18217 4.70827 6.99972 4.88645 6.7739 4.88645ZM10.8632 4.88645C10.6374 4.88645 10.4549 4.70827 10.4549 4.48873C10.4549 4.27077 10.6374 4.091 10.8632 4.091C11.089 4.091 11.2731 4.27077 11.2731 4.48873C11.2731 4.70827 11.089 4.88645 10.8632 4.88645Z" fill="var(--rooms-cards-grey, #808080)"/>
</svg>
